<?xml version="1.0" standalone="no"?>
<!DOCTYPE svg PUBLIC "-//W3C//DTD SVG 20010904//EN"
 "http://www.w3.org/TR/2001/REC-SVG-20010904/DTD/svg10.dtd">
<svg version="1.0" xmlns="http://www.w3.org/2000/svg"
 width="250.000000pt" height="250.000000pt" viewBox="0 0 250.000000 250.000000"
 preserveAspectRatio="xMidYMid meet">
<metadata>
Created by potrace 1.14, written by Peter Selinger 2001-2017
</metadata>
<g transform="translate(0.000000,250.000000) scale(0.100000,-0.100000)"
fill="#000000" stroke="none">
<path d="M1076 2383 c-1 -2 -29 -8 -62 -14 -71 -12 -213 -58 -234 -74 -8 -7
-21 -10 -27 -8 -7 3 -13 0 -13 -5 0 -5 -18 -17 -40 -26 -22 -8 -50 -24 -62
-35 -28 -24 -83 -65 -120 -88 -16 -10 -28 -23 -28 -29 0 -6 -12 -22 -27 -36
-59 -54 -140 -177 -159 -240 -8 -26 -20 -53 -27 -60 -8 -7 -13 -15 -13 -18 1
-3 -5 -23 -12 -45 -35 -114 -49 -204 -50 -311 -1 -66 3 -114 8 -114 6 0 10
-12 10 -27 1 -96 55 -240 126 -332 l34 -45 -30 -29 c-44 -43 -42 -94 5 -142
21 -21 45 -35 60 -35 23 0 24 -2 14 -27 -18 -49 -2 -118 38 -158 47 -47 73
-61 83 -45 5 9 29 12 69 11 36 -1 61 3 61 9 0 24 38 8 50 -20 7 -17 21 -37 32
-44 25 -18 84 -10 121 16 23 17 32 19 35 9 3 -8 14 -23 26 -35 11 -11 20 -24
19 -27 -1 -4 24 0 56 8 49 12 65 13 112 1 30 -8 53 -18 52 -23 -1 -6 -10 -30
-19 -55 -19 -51 -13 -131 11 -152 38 -35 48 -39 85 -36 53 3 92 39 88 80 -3
34 1 38 75 64 26 9 47 22 47 29 0 7 7 18 15 25 8 6 14 15 13 18 -1 4 5 27 12
52 7 25 13 49 12 53 -5 21 23 -10 54 -59 38 -59 79 -79 124 -60 36 14 50 35
50 73 0 38 -2 37 39 17 29 -15 34 -14 64 3 28 17 33 25 37 71 l5 52 30 -16
c41 -22 104 -25 139 -7 30 16 31 23 10 129 -5 25 1 39 35 82 23 28 41 57 41
65 0 7 4 17 9 23 5 5 30 50 56 99 26 50 52 96 59 104 6 8 12 24 12 35 1 12 9
46 17 76 8 30 15 89 16 131 2 76 -24 269 -37 279 -4 3 -18 43 -32 90 -13 47
-27 87 -30 90 -4 3 -18 30 -31 60 -13 30 -31 64 -41 74 -10 11 -18 25 -18 32
0 7 -3 14 -7 16 -5 2 -26 28 -49 58 -56 75 -276 270 -305 270 -4 0 -14 6 -21
13 -18 16 -163 83 -213 97 -22 7 -53 18 -70 25 -16 7 -57 16 -90 20 -33 4 -64
10 -70 14 -10 6 -223 10 -229 4z m18 -35 c9 15 166 13 166 -1 0 -7 5 -5 10 3
7 10 13 11 18 4 4 -5 46 -15 93 -21 125 -17 272 -77 409 -168 89 -59 99 -68
193 -162 85 -85 118 -125 142 -173 9 -19 24 -42 31 -51 8 -9 24 -43 35 -75 12
-32 24 -61 28 -64 10 -7 38 -113 47 -175 3 -27 11 -56 16 -62 6 -7 10 -69 11
-139 0 -99 -2 -128 -14 -135 -12 -7 -12 -9 1 -9 10 0 11 -3 4 -8 -6 -4 -14
-18 -17 -32 -18 -78 -27 -103 -43 -121 -9 -10 -13 -19 -9 -19 4 0 2 -8 -6 -17
-8 -10 -21 -30 -29 -45 -7 -16 -17 -28 -21 -28 -5 0 -13 -19 -20 -42 -6 -23
-30 -65 -54 -93 l-44 -51 16 -62 c17 -70 12 -86 -35 -95 -18 -4 -45 3 -80 21
-62 30 -72 24 -72 -44 0 -66 -28 -78 -116 -48 -32 11 -50 12 -57 5 -7 -7 -5
-12 6 -17 20 -7 24 -73 5 -92 -32 -32 -90 -4 -124 60 -19 36 -67 74 -73 56 -2
-7 -12 -32 -22 -55 -11 -23 -19 -50 -19 -60 0 -31 -44 -68 -99 -83 l-52 -14 6
-39 c9 -48 -11 -66 -72 -67 -37 0 -44 4 -63 35 -24 39 -23 80 4 130 32 60 15
82 -82 106 -46 11 -56 11 -80 -3 -31 -18 -62 -16 -73 5 -5 7 -17 24 -27 37
l-19 23 -29 -22 c-38 -27 -97 -30 -124 -6 -11 10 -20 24 -20 31 0 21 -32 34
-54 22 -10 -6 -41 -8 -69 -5 -38 3 -54 0 -67 -13 -16 -16 -20 -14 -64 30 -53
55 -59 91 -25 147 26 41 15 55 -38 51 -69 -5 -98 90 -43 142 17 15 30 31 30
35 0 4 -19 28 -41 53 -23 26 -48 63 -56 82 -8 19 -24 54 -34 77 -34 74 -52
215 -46 353 6 122 13 156 57 290 31 93 73 175 113 220 9 11 17 24 17 29 0 12
138 153 180 183 19 14 51 33 70 43 18 10 40 23 47 30 7 7 34 21 60 31 27 10
51 22 54 27 9 12 155 46 202 47 23 0 37 5 37 13 0 9 3 8 9 -2 5 -8 11 -9 15
-3z"/>
<path d="M1822 1390 c-72 -26 -126 -71 -156 -132 -84 -169 50 -383 239 -382
104 1 188 51 243 144 23 38 27 57 27 120 -1 91 -27 153 -87 204 -76 65 -169
81 -266 46z m87 -86 c36 -46 26 -82 -26 -98 -17 -5 -29 -1 -48 18 -31 31 -32
70 -3 90 32 23 54 20 77 -10z m142 -24 c41 -22 65 -112 33 -124 -28 -11 -50
12 -66 68 -19 68 -12 79 33 56z"/>
<path d="M2139 1354 c-11 -14 -10 -15 11 -12 13 1 25 9 28 16 5 17 -23 15 -39
-4z"/>
<path d="M865 1330 c-3 -5 -1 -10 4 -10 6 0 11 5 11 10 0 6 -2 10 -4 10 -3 0
-8 -4 -11 -10z"/>
<path d="M710 1303 c0 -23 15 -39 24 -25 3 5 -1 18 -9 28 -14 18 -14 18 -15
-3z"/>
<path d="M772 1262 c-108 -39 -187 -154 -187 -272 1 -197 184 -329 366 -265
99 35 169 146 169 267 0 80 -15 126 -59 184 -67 89 -183 123 -289 86z m155
-72 c65 -39 64 -83 -2 -96 -47 -9 -87 13 -99 55 -8 28 -7 36 9 47 26 19 54 17
92 -6z m-187 -58 c0 -20 -63 -123 -74 -119 -36 12 12 127 54 127 11 0 20 -4
20 -8z m282 -79 c21 -18 24 -53 6 -71 -31 -31 -88 1 -88 49 0 40 48 53 82 22z"/>
<path d="M2186 1271 c-3 -5 0 -14 8 -20 11 -9 15 -8 20 5 3 8 6 18 6 20 0 8
-29 4 -34 -5z"/>
<path d="M1260 761 c0 -38 37 -90 80 -112 53 -29 152 -26 205 6 49 28 78 67
73 98 -4 28 -31 29 -36 2 -13 -71 -139 -109 -222 -67 -21 10 -44 34 -58 60
-27 49 -42 54 -42 13z"/>
<path d="M2025 570 c-4 -6 -13 -9 -20 -6 -11 4 -25 -13 -25 -29 0 -2 18 -3 40
-2 41 1 51 15 26 36 -10 9 -16 9 -21 1z"/>
<path d="M1680 384 c-12 -21 -12 -27 0 -34 20 -13 30 -3 30 31 0 36 -12 37
-30 3z"/>
</g>
</svg>
